<?xml version="1.0" standalone="no"?>
<!DOCTYPE svg PUBLIC "-//W3C//DTD SVG 20010904//EN"
 "http://www.w3.org/TR/2001/REC-SVG-20010904/DTD/svg10.dtd">
<svg version="1.0" xmlns="http://www.w3.org/2000/svg"
 width="570.000000pt" height="529.000000pt" viewBox="0 0 570.000000 529.000000"
 preserveAspectRatio="xMidYMid meet">

<g transform="translate(0.000000,529.000000) scale(0.100000,-0.100000)"
fill="#000000" stroke="none">
<path d="M2872 4010 c-139 -19 -276 -87 -340 -168 -165 -208 -119 -529 98
-676 19 -13 45 -27 58 -31 l22 -6 0 135 c0 151 6 166 65 166 61 0 65 -12 65
-200 l0 -168 83 -43 c45 -24 89 -47 97 -50 33 -14 88 -87 95 -127 15 -90 -40
-181 -126 -206 -117 -35 -253 -29 -338 14 -72 37 -194 90 -207 90 -26 0 -38
-44 -38 -137 -1 -113 11 -134 104 -180 106 -53 207 -75 345 -76 274 0 459 98
560 298 l40 80 0 125 c0 158 -13 195 -106 300 -62 71 -131 120 -167 120 -9 0
-12 -40 -12 -145 0 -141 -1 -145 -24 -160 -29 -19 -72 -11 -86 15 -6 10 -10
95 -10 188 l0 169 -102 53 c-151 78 -180 111 -180 202 1 58 25 105 68 130 46
27 183 39 254 22 55 -13 129 -42 140 -55 7 -9 87 -49 98 -49 20 0 32 56 32
146 0 52 -5 104 -10 115 -38 69 -310 132 -478 109z"/>
<path d="M450 3977 l-25 -13 -3 -318 c-2 -293 -1 -321 15 -339 15 -16 18 -39
18 -144 0 -111 -2 -126 -19 -139 -17 -12 -18 -22 -13 -109 12 -176 58 -296
154 -396 94 -99 215 -150 403 -169 245 -26 481 46 609 185 81 90 149 254 122
297 -13 21 -19 617 -6 657 3 12 13 21 21 21 12 0 14 36 14 224 0 196 -2 225
-17 237 -17 15 -214 26 -258 15 -54 -14 -55 -18 -55 -274 l0 -237 30 -17 30
-17 0 -268 c0 -147 -4 -273 -8 -280 -4 -6 -20 -16 -35 -22 -15 -6 -27 -16 -27
-23 0 -27 -48 -115 -81 -147 -59 -59 -130 -85 -234 -85 -76 0 -99 4 -145 26
-121 57 -181 157 -193 318 -2 29 -6 36 -27 38 -44 6 -50 26 -50 172 0 120 2
139 18 153 10 10 28 17 40 17 l22 0 0 309 c0 275 -2 310 -17 322 -23 20 -248
25 -283 6z m158 -349 c17 -17 17 -899 0 -916 -20 -20 -86 -15 -98 7 -6 13 -10
174 -10 455 0 382 2 436 16 450 18 19 75 21 92 4z m1024 -335 c15 -14 18 -32
18 -124 0 -121 -8 -139 -64 -139 -51 0 -56 12 -56 142 0 101 2 118 18 127 26
16 63 13 84 -6z"/>
<path d="M4167 3974 c-15 -8 -32 -26 -37 -40 -6 -14 -10 -153 -10 -310 0 -269
1 -284 18 -284 43 0 52 -28 52 -171 0 -142 -6 -164 -45 -171 -19 -3 -20 -12
-23 -276 -3 -308 0 -321 64 -342 54 -18 595 -7 685 14 96 22 186 61 244 104
169 128 222 367 124 557 -46 90 -104 143 -171 159 l-28 6 0 -90 c0 -112 -8
-130 -58 -130 -21 0 -43 5 -50 12 -8 8 -12 57 -12 154 0 116 3 145 16 158 24
25 69 20 92 -9 20 -25 21 -25 50 -8 62 36 122 163 122 261 0 63 -36 179 -73
235 -40 61 -129 121 -216 147 -100 30 -222 40 -481 40 -191 -1 -240 -4 -263
-16z m593 -258 c19 -10 52 -36 73 -56 l37 -38 0 -297 0 -297 29 -34 c70 -79
67 -214 -5 -293 -57 -63 -104 -76 -289 -76 l-160 0 -3 196 c-2 159 -5 199 -17
209 -22 18 -22 262 0 280 12 10 15 48 15 222 l0 210 143 -4 c115 -3 149 -7
177 -22z m-414 -260 c18 -13 19 -30 22 -273 3 -293 0 -306 -59 -311 -69 -6
-69 -4 -69 298 0 266 0 269 22 284 28 20 58 20 84 2z"/>
<path d="M4632 3330 c-57 -4 -105 -10 -108 -12 -2 -3 0 -17 6 -32 5 -15 10
-67 10 -115 l0 -88 31 -7 c17 -3 51 -6 74 -6 23 0 57 3 74 6 l31 7 0 128 c0
71 -3 128 -7 128 -5 -1 -54 -5 -111 -9z"/>
<path d="M422 2213 l3 -78 220 -5 c202 -5 223 -7 261 -27 82 -44 121 -117 111
-211 -14 -134 -132 -201 -355 -202 -35 0 -62 -4 -60 -9 2 -5 84 -129 183 -275
l180 -265 103 0 c57 -1 102 2 100 7 -1 4 -72 98 -155 209 -84 112 -153 204
-153 206 0 3 20 7 44 9 61 7 146 49 188 92 162 167 102 504 -104 589 -62 26
-178 37 -379 37 l-190 0 3 -77z"/>
<path d="M2135 2281 l-60 -6 -290 -422 c-159 -232 -333 -484 -385 -560 -52
-76 -96 -141 -98 -145 -2 -5 42 -8 97 -8 l101 0 307 463 308 462 3 -462 2
-463 85 0 85 0 -2 573 -3 572 -45 1 c-25 1 -72 -2 -105 -5z"/>
<path d="M2615 2271 c-50 -22 -91 -69 -105 -119 -6 -23 -10 -195 -10 -447 0
-459 0 -458 73 -522 57 -50 121 -63 189 -39 56 20 643 403 677 442 60 68 65
168 12 241 -20 28 -111 92 -332 234 -167 108 -318 204 -336 213 -42 21 -118
20 -168 -3z m110 -101 c15 -6 84 -47 153 -92 70 -45 204 -131 297 -191 94 -60
176 -116 183 -125 14 -19 16 -66 2 -92 -9 -17 -77 -62 -482 -322 -165 -107
-192 -115 -233 -73 l-25 24 0 413 c0 227 4 418 8 425 6 9 59 43 69 43 1 0 14
-5 28 -10z"/>
<path d="M3650 1715 l0 -575 80 0 80 0 0 575 0 575 -80 0 -80 0 0 -575z"/>
<path d="M4605 2275 c-336 -62 -543 -408 -440 -734 130 -410 650 -537 955
-231 175 174 218 422 114 650 -74 162 -233 284 -413 316 -92 16 -125 16 -216
-1z m279 -173 c86 -40 146 -97 190 -181 70 -133 72 -281 5 -413 -125 -248
-458 -302 -652 -106 -164 166 -169 432 -10 608 85 95 176 132 315 126 71 -3
98 -9 152 -34z"/>
</g>
</svg>
